<svg id="Layer_1" data-name="Layer 1" xmlns="http://www.w3.org/2000/svg" viewBox="0 0 60 60"><defs><style>.cls-1{fill:#8c9bac;}</style></defs><title>Budget</title><g id="_Group_" data-name="&lt;Group&gt;"><path id="_Path_" data-name="&lt;Path&gt;" class="cls-1" d="M19.23,28.62l-1.87-.11a0.7,0.7,0,0,0-.76.67,0.72,0.72,0,0,0,.67.76l1.87,0.11h0A0.72,0.72,0,0,0,19.23,28.62Z"/><path id="_Compound_Path_" data-name="&lt;Compound Path&gt;" class="cls-1" d="M50.28,31c-0.45-.56-11-13.53-25.88-13.53H24C19,17.58,15.33,19,13,21.79c-0.05.06-.09,0.13-0.14,0.19a0.7,0.7,0,0,0-.11.15,12.79,12.79,0,0,0-2.44,8.47C7.49,31.8,8.37,35,8.75,36.43l0.09,0.36a2,2,0,0,0,1,1.49,1.17,1.17,0,0,0,.44.07,4.3,4.3,0,0,0,8.5.09h21a4.3,4.3,0,0,0,8.58,0,3.63,3.63,0,0,0,3-2C52.37,34.26,50.53,31.4,50.28,31Zm-1.67.26a4.74,4.74,0,0,1-2.74-1.64,3.79,3.79,0,0,1-.69-1.74A42,42,0,0,1,48.61,31.29ZM12.83,24.63a8.34,8.34,0,0,1-1.13,4.95A11.89,11.89,0,0,1,12.83,24.63Zm1.76,16a2.88,2.88,0,1,1,2.88-2.88A2.88,2.88,0,0,1,14.58,40.62Zm29.57,0.44A2.88,2.88,0,1,1,47,38.18,2.88,2.88,0,0,1,44.15,41.06Zm5.94-5.2A2.28,2.28,0,0,1,48.27,37,4.29,4.29,0,0,0,40,37H28.35a20.76,20.76,0,0,0,.38-7.52,0.67,0.67,0,1,0-1.33.19A19,19,0,0,1,26.93,37H18.82a4.3,4.3,0,0,0-8.45-.18,1.86,1.86,0,0,1-.13-0.38l-0.1-.38c-0.63-2.33-.65-3.78,1.1-4.28l0.09,0h0.05l0.08-.05,0,0c3.38-1.91,2.83-7.53,2.62-9,2.08-2.41,5.43-3.67,9.95-3.74H24.4c8,0,14.87,4.14,19.32,7.73a5.6,5.6,0,0,0,1,3.82,6.86,6.86,0,0,0,5,2.46A3.93,3.93,0,0,1,50.1,35.86Z"/><path id="_Compound_Path_2" data-name="&lt;Compound Path&gt;" class="cls-1" d="M27.64,20.34a0.66,0.66,0,0,0-.33,0h0a22.42,22.42,0,0,0-9.85,1.27A0.72,0.72,0,0,0,17,22a22.39,22.39,0,0,0-1.28,5,0.72,0.72,0,0,0,.69.78l26,0.9h0a0.72,0.72,0,0,0,.5-1.23A28.54,28.54,0,0,0,27.64,20.34Zm-10.35,6a23.11,23.11,0,0,1,1-3.52,20.94,20.94,0,0,1,8.52-1.1l0.69,5Zm11.64,0.4-0.67-4.87a27,27,0,0,1,12.13,5.26Z"/><path id="_Path_2" data-name="&lt;Path&gt;" class="cls-1" d="M32.27,28.91L30.4,28.8a0.72,0.72,0,1,0-.09,1.43l1.87,0.11h0A0.72,0.72,0,0,0,32.27,28.91Z"/></g></svg>
