<svg id="Layer_1" data-name="Layer 1" xmlns="http://www.w3.org/2000/svg" viewBox="0 0 60 60"><defs><style>.cls-1{fill:#8c9bac;}</style></defs><title>Car</title><g id="_Group_" data-name="&lt;Group&gt;"><path id="_Path_" data-name="&lt;Path&gt;" class="cls-1" d="M32.9,28.77l-2.71-.17a0.69,0.69,0,0,0-.52.15,0.75,0.75,0,0,0-.26.53,0.72,0.72,0,0,0,.18.53,0.73,0.73,0,0,0,.5.25l2.71,0.17h0.05a0.73,0.73,0,0,0,.73-0.68A0.72,0.72,0,0,0,33.4,29,0.73,0.73,0,0,0,32.9,28.77Z"/><path id="_Compound_Path_" data-name="&lt;Compound Path&gt;" class="cls-1" d="M18.17,27.9l-2.72-.17a0.71,0.71,0,0,0-.52.17,0.74,0.74,0,0,0-.26.51,0.72,0.72,0,0,0,.18.53,0.73,0.73,0,0,0,.5.25l2.72,0.17h0.05a0.73,0.73,0,0,0,.73-0.68,0.72,0.72,0,0,0-.18-0.53A0.73,0.73,0,0,0,18.17,27.9Zm0,1.29h0Z"/><path id="_Compound_Path_2" data-name="&lt;Compound Path&gt;" class="cls-1" d="M56.68,33c-0.14-.93-0.77-3.26-0.78-3.29a0.72,0.72,0,0,0-.3-0.42,24.79,24.79,0,0,0-7.56-3l-3.26-.19-7.1-3.19c-0.22-.11-5.51-2.57-14-2.42A52,52,0,0,0,7.46,23.86l-2.65.22a0.73,0.73,0,0,0-.48.24,0.94,0.94,0,0,0-.18.9,1.42,1.42,0,0,0,1,.83L4.5,28.21a0.72,0.72,0,0,0,.09.61,0.73,0.73,0,0,0,.35.28L4.74,30h0l-0.07.35a0.59,0.59,0,0,0,0,.16,0.22,0.22,0,0,1,0,.08,0.48,0.48,0,0,1-.28,0,0.74,0.74,0,0,0-.3,0A1.32,1.32,0,0,0,3.22,32c0,0.45,0,2,0,2.53a1.14,1.14,0,0,0,1.14,1.2,1.5,1.5,0,0,1,1.47.65,0.75,0.75,0,0,0,.2.22l1.33,1a0.74,0.74,0,0,0,.43.14h2.66a4.45,4.45,0,0,0,7.13,0H41.95a4.45,4.45,0,0,0,7.51-.6,34.23,34.23,0,0,0,6.32-.39,1.21,1.21,0,0,0,.47-2.2A1.67,1.67,0,0,0,56.68,33Zm-11.17,5A3,3,0,0,1,43,36.73l0,0A3,3,0,1,1,45.51,38.06Zm0-7.53A4.5,4.5,0,0,0,41,35a4.44,4.44,0,0,0,.2,1.25H27.34a0.72,0.72,0,0,0,.45-0.46A12,12,0,0,0,28,28.34a0.73,0.73,0,0,0-1.36.53,10.8,10.8,0,0,1-.26,6.5,0.73,0.73,0,0,0,.46.91H18.31a4.43,4.43,0,0,0,.2-1.25,4.5,4.5,0,1,0-9,0,4.44,4.44,0,0,0,.2,1.25H8l-1-.74a2.8,2.8,0,0,0-2.31-1.22c0-.54,0-1.71,0-2.21a1.6,1.6,0,0,0,1-.41,1.53,1.53,0,0,0,.45-0.86l1.23-.2a0.72,0.72,0,0,0,.51-0.35l2-3.41a0.73,0.73,0,0,0-.31-1L8.38,25.3a0.72,0.72,0,0,0-.52,0h0C8,25.2,9.54,24.6,11.82,23.93c0.62,0.67,2,2.17,2.58,2.77a0.73,0.73,0,0,0,.47.22l28.54,1.94a6,6,0,0,0,.83.06,1.67,1.67,0,0,0,1.69-.74A1,1,0,0,0,46,27.62l1.36,0.08A4.81,4.81,0,0,0,48.82,30a8.41,8.41,0,0,0,5.83,1.8h0.28c0.13,0.53.25,1.08,0.3,1.4a0.74,0.74,0,0,1,0,.25,0.73,0.73,0,0,0-.47.68v0.71a0.73,0.73,0,0,0,.22.53,36.06,36.06,0,0,1-5.06.27A4.43,4.43,0,0,0,50,35,4.5,4.5,0,0,0,45.51,30.53ZM11,35a3,3,0,1,1,3,3A3,3,0,0,1,11,35Zm-4.57-7a0.74,0.74,0,0,0-.28-0.23l0.6-2.07a0.7,0.7,0,0,0,0-.37l0.95-.08,0.13,0a0.72,0.72,0,0,0-.07,1.34l0.44,0.21L6.75,29.26l-0.36.06,0.14-.69A0.73,0.73,0,0,0,6.41,28.06Zm37.8-.62,0,0a5,5,0,0,1-.66,0L28,26.35,27.23,22a30.42,30.42,0,0,1,9.83,2.19ZM49.08,28a23.93,23.93,0,0,1,5.45,2.33C51,30.33,49.62,29,49.08,28ZM25.74,22l0.73,4.29-11.21-.76c-0.48-.51-1.26-1.34-1.86-2a45.38,45.38,0,0,1,10.34-1.55C24.43,21.93,25.09,21.94,25.74,22Z"/></g></svg>
