<svg id="Layer_1" data-name="Layer 1" xmlns="http://www.w3.org/2000/svg" viewBox="0 0 60 60"><defs><style>.cls-1{fill:#8c9bac;}</style></defs><title>Wagon R icon</title><path class="cls-1" d="M51.67,32.06L51.14,31c-1.26-2.4-4.21-2.67-4.85-2.7-1.16-.41-12.38-4.43-14.56-5.28a16.89,16.89,0,0,0-5.95-.78L13.85,23.29c-1.88.17-3,2.35-3,2.46l-2.2,4.68a0.63,0.63,0,0,0-.05.16L8.28,32.22a0.65,0.65,0,0,0,0,.21l0.43,3a0.64,0.64,0,0,0,.08.23l1.53,2.67a0.65,0.65,0,0,0,.56.33h0l2.86-.07a3.71,3.71,0,0,0,6.9-.13h20a3.71,3.71,0,0,0,6.95,0h1.23a3.36,3.36,0,0,0,2.85-2.4,0.65,0.65,0,0,0,0-.16V32.34A0.65,0.65,0,0,0,51.67,32.06ZM50,31.57l0.44,0.9-3.23-1-0.26-1.85A4.15,4.15,0,0,1,50,31.57ZM34.23,25.33l4.2,3.75-11.29-.72-0.42-4.83a14,14,0,0,1,4.54.7C31.81,24.44,32.89,24.84,34.23,25.33Zm-8.4,2.94-8.91-.57L15,24.49l10.43-.92ZM11.74,26.87l0.92,1.26,0.43,0.46c-0.2.4-.85,1.17-2.82,1.39ZM9.91,34.67L9.67,33h0.55l0.22,1.23Zm7.28,4.9a2.23,2.23,0,1,1,2.38-2.23A2.31,2.31,0,0,1,17.19,39.57Zm0-5.76a3.61,3.61,0,0,0-3.67,3.48l-2.26.05-0.82-1.42L11.56,35a0.65,0.65,0,0,0,.22-0.61L11.4,32.23a0.65,0.65,0,0,0-.64-0.54H9.7l0.07-.37c4.37-.24,4.7-2.73,4.71-2.84A0.65,0.65,0,0,0,14.3,28l-0.64-.67-1.22-1.67a2.81,2.81,0,0,1,1.15-1l2.39,4a0.65,0.65,0,0,0,.52.31l9.45,0.61,0.66,7.58H20.85A3.61,3.61,0,0,0,17.19,33.81Zm27,5.76a2.23,2.23,0,1,1,2.38-2.23A2.31,2.31,0,0,1,44.15,39.57Zm4.63-2.41h-1a3.68,3.68,0,0,0-7.32,0H27.91l-0.65-7.5,11.09,0.71h0.09A1.35,1.35,0,0,0,39.32,28l-1.66-1.44,7.92,2.85L46,32.11a0.65,0.65,0,0,0,.46.53l4,1.19v2A2,2,0,0,1,48.78,37.16Z"/><path class="cls-1" d="M21.1,30.49a0.65,0.65,0,0,0-.6-0.7l-2.74-.2a0.65,0.65,0,0,0-.1,1.3l2.74,0.2h0A0.65,0.65,0,0,0,21.1,30.49Z"/><path class="cls-1" d="M32.06,30.74l-2.56-.17a0.65,0.65,0,0,0-.09,1.3L32,32h0A0.65,0.65,0,0,0,32.06,30.74Z"/></svg>