<svg id="Layer_1" data-name="Layer 1" xmlns="http://www.w3.org/2000/svg" viewBox="0 0 60 60"><defs><style>.cls-1{fill:#8c9bac;}</style></defs><title>Mini-van</title><path class="cls-1" d="M28.21,26.59h0.09a1.08,1.08,0,0,0,.28,0H28.21Z"/><path class="cls-1" d="M53.48,32V29.82a5.43,5.43,0,0,0-2.54-4.33l-1.31-.42-5.33-4.53a10.13,10.13,0,0,0-4.61-1.16c-0.44,0-1.57,0-3.17-.06H36.37l-1.51,0h0c-3.75,0-4.52-.07-9.72-0.09a0.71,0.71,0,0,0-.58,0L8.63,19.13a0.73,0.73,0,0,0-.68,1L8.3,21,7.4,26.9l-0.55.9a0.72,0.72,0,0,0-.11.41L7,34l-0.35.64a0.73,0.73,0,0,0-.09.42l0.23,2.42a0.73,0.73,0,0,0,.73.66h5.1a4.49,4.49,0,0,0,7.82.76H37.93a4.48,4.48,0,0,0,7.39,0h6.24a0.73,0.73,0,0,0,.39-0.11L53,38.14a0.73,0.73,0,0,0,.34-0.62V34.9a0.72,0.72,0,0,0,0-.21L53,33.5l0.48-1.29A0.71,0.71,0,0,0,53.48,32ZM39.61,20.82a9.57,9.57,0,0,1,3.83.89l5.1,4.34a0.6,0.6,0,0,1-.09.39,1.2,1.2,0,0,1-.85,0l-9.22-.87a0.75,0.75,0,0,1-.68-0.67l-0.41-4.14Zm-14-.17c4.15,0,1.27,0,4.58.07l-0.38,4.62a1.53,1.53,0,0,1-1.2,1.24c0.33,0,.28,0-3,0.06v-6ZM13.17,20.6l11,0v6l-11.41.09a0.86,0.86,0,0,1-.52-0.11,0.21,0.21,0,0,1,0-.13Zm3.54,18.81a3,3,0,1,1,3-3A3,3,0,0,1,16.71,39.41Zm7.41-1.94H21.05a4.45,4.45,0,0,0,.15-1.09,4.5,4.5,0,1,0-9,0c0,0.11,0,.22,0,0.33H8.15L8,35.15l0.13-.24,0.27-.62V33.45L8.2,28.38l0.52-.84a0.73,0.73,0,0,0,.1-0.27l1-6.27a0.73,0.73,0,0,0,0-.39v0h2l-0.94,5.63A1.63,1.63,0,0,0,11,27.55a2,2,0,0,0,1.67.67l11.41-.09v9.34Zm8.67,0H25.58v-8.9a0.58,0.58,0,0,0,0-.06c0-.13,0-0.25,0-0.38,4.61,0,2.05-.07,2.52-0.08a2.87,2.87,0,0,0,3.11-2.31,0.78,0.78,0,0,0,0-.15l0.4-4.83h1.31Zm8.83,1.94a3,3,0,1,1,3-3A3,3,0,0,1,41.62,39.41Zm10.26-2.29-0.54.34H46a4.45,4.45,0,0,0,.15-1.09,4.5,4.5,0,1,0-9,0,4.45,4.45,0,0,0,.15,1.09h-3l0.14-16.71h1.43l0.43,4.3a2.21,2.21,0,0,0,2,2l9.08,0.84a2.84,2.84,0,0,0,.76.1,1.94,1.94,0,0,0,1.3-.43,1.69,1.69,0,0,0,.54-0.87l0.44,0.14a2.92,2.92,0,0,1,1.21,1.37H50.33a0.73,0.73,0,0,0-.73.73v2.63a0.73,0.73,0,0,0,.73.73h1.52l-0.35.95a0.72,0.72,0,0,0,0,.46L51.88,35v2.11ZM52,30.81h-1V29.65H52c0,0.1,0,.17,0,0.21v1Z"/><path class="cls-1" d="M31.07,30.67v1.22a0.73,0.73,0,1,0,1.46,0V30.67A0.73,0.73,0,0,0,31.07,30.67Z"/><path class="cls-1" d="M39.08,28H37.86a0.73,0.73,0,1,0,0,1.46h1.22A0.73,0.73,0,1,0,39.08,28Z"/></svg>
