<svg id="Layer_1" data-name="Layer 1" xmlns="http://www.w3.org/2000/svg" viewBox="0 0 60 60"><defs><style>.cls-1{fill:#8c9bac;}</style></defs><title>Tuk</title><g id="_Group_" data-name="&lt;Group&gt;"><path id="_Compound_Path_" data-name="&lt;Compound Path&gt;" class="cls-1" d="M44.64,34.31A1.42,1.42,0,0,0,45,33.4V32.06a1.41,1.41,0,0,0-1.41-1.41H42.68a2.09,2.09,0,0,0-.43,0c0-.38,0-0.77,0-1.15a18.82,18.82,0,0,0-2-8.37,2.85,2.85,0,0,0,2.28-2.81,0.72,0.72,0,0,0-.72-0.72h-22a5.52,5.52,0,0,0-5.51,5.51V35.38a5,5,0,0,0-.9,2.3A1.19,1.19,0,0,0,14.66,39h0.58s0,0.08,0,.12a3.23,3.23,0,1,0,6.46,0s0-.08,0-0.12h1.08a0.72,0.72,0,0,0,.72-0.72,5,5,0,0,0-.15-1.21H36.17a0.72,0.72,0,0,0,.72-0.72V28.21H40.8c0,0.45.05,0.89,0.05,1.32a18,18,0,0,1-.21,2.76c0,0.06,0,.12,0,0.18a16.67,16.67,0,0,1-1.73,5.1H26.1a0.72,0.72,0,1,0,0,1.43H38.35s0,0.08,0,.12a3.23,3.23,0,1,0,6.46,0s0-.08,0-0.12h0.31a1.41,1.41,0,0,0,1.39-1.68A5,5,0,0,0,44.64,34.31Zm-1.27,4.81a1.79,1.79,0,0,1-3.59,0s0-.08,0-0.12h3.58S43.37,39.09,43.37,39.13Zm-11-6.72v3.24H29.9V32.41h2.51Zm1.08-1.79a0.36,0.36,0,0,1-.36.36H29.9V30.25h3.23A0.36,0.36,0,0,1,33.49,30.61Zm0.36,1.64a1.79,1.79,0,0,0-.72-3.44H29.9V21.23h5.55V35.65h-1.6V32.26ZM20.26,39.13a1.79,1.79,0,0,1-3.59,0s0-.08,0-0.12h3.58S20.26,39.09,20.26,39.13Zm16.63-17.9h1.85a17.18,17.18,0,0,1,1.9,5.55H36.89V21.23ZM15.81,34V29.81h6.28A2.16,2.16,0,0,1,24.24,32v3.68H22.73a5.05,5.05,0,0,0-4.27-2.38A5,5,0,0,0,15.81,34Zm2.66,0.68A3.62,3.62,0,0,1,22,37.57H15A3.62,3.62,0,0,1,18.47,34.7Zm2.08-12v3a0.72,0.72,0,0,0,1.44,0v-3a1.45,1.45,0,0,1,1.45-1.45h5V35.65H25.68V32a3.59,3.59,0,0,0-3.59-3.59H15.81V23.16a4.08,4.08,0,0,1,4.08-4.08H41a1.43,1.43,0,0,1-1.24.72H23.43A2.89,2.89,0,0,0,20.54,22.68Zm21.74,12.1h0.08a3.58,3.58,0,0,1,2.72,2.78h-4.6a18,18,0,0,0,1.09-2.87A5.19,5.19,0,0,1,42.28,34.78Zm1.25-1.4H42.61l-0.09,0A0.66,0.66,0,0,1,42,32.73s0,0,0,0l0-.1a0.65,0.65,0,0,1,.63-0.5h0.85v1.3Z"/></g></svg>
