<svg id="Layer_1" data-name="Layer 1" xmlns="http://www.w3.org/2000/svg" viewBox="0 0 60 60"><defs><style>.cls-1{fill:#8c9bac;}</style></defs><title>Van</title><g id="_Group_" data-name="&lt;Group&gt;"><path id="_Compound_Path_" data-name="&lt;Compound Path&gt;" class="cls-1" d="M55.77,32V29.82a5.42,5.42,0,0,0-2.54-4.33l-1.31-.42-5.33-4.53A10.13,10.13,0,0,0,42,19.37c-0.44,0-1.57,0-3.17-.06H38.67l-1.51,0h0c-3.75,0-9.1-.07-14.31-0.09a0.71,0.71,0,0,0-.58,0L6.34,19.13a0.73,0.73,0,0,0-.68,1L6,21,5.1,26.9l-0.55.9a0.72,0.72,0,0,0-.11.41L4.67,34l-0.35.64a0.73,0.73,0,0,0-.09.42l0.23,2.42a0.73,0.73,0,0,0,.73.66h7.49a4.49,4.49,0,0,0,7.82.76H40.22a4.48,4.48,0,0,0,7.39,0h6.24a0.73,0.73,0,0,0,.39-0.11l1.05-.67a0.73,0.73,0,0,0,.34-0.62V34.9a0.72,0.72,0,0,0,0-.21l-0.35-1.2,0.48-1.29A0.71,0.71,0,0,0,55.77,32Zm-2,1.73L54.17,35v2.11l-0.54.34H48.26a4.45,4.45,0,0,0,.15-1.09,4.5,4.5,0,1,0-9,0,4.45,4.45,0,0,0,.15,1.09H37.74l0.14-16.71h0.24l0.43,4.3a2.21,2.21,0,0,0,2,2l9.08,0.84a2.84,2.84,0,0,0,.76.1,1.94,1.94,0,0,0,1.3-.43,1.69,1.69,0,0,0,.54-0.87l0.44,0.14a2.92,2.92,0,0,1,1.21,1.37H52.62a0.73,0.73,0,0,0-.73.73v2.63a0.73,0.73,0,0,0,.73.73h1.52l-0.35.95A0.72,0.72,0,0,0,53.78,33.68Zm-12.9,2.69a3,3,0,1,1,3,3A3,3,0,0,1,40.88,36.37Zm-24.07-3a3,3,0,1,1-3,3A3,3,0,0,1,16.8,33.33Zm0-1.46a4.5,4.5,0,0,0-4.5,4.5c0,0.11,0,.22,0,0.33H5.85L5.71,35.15l0.13-.24H7.2a0.72,0.72,0,0,0,.52-0.22,0.74,0.74,0,0,0,.21-0.52L7.84,29.53a0.71,0.71,0,0,0-.74-0.72h0a0.73,0.73,0,0,0-.72.74l0.08,3.89H6.1l-0.2-5.07,0.52-.84a0.73,0.73,0,0,0,.1-0.27l1-6.27a0.73,0.73,0,0,0,0-.39v0H8.19L7.26,26.23a1.63,1.63,0,0,0,.29,1.32,2,2,0,0,0,1.67.67L22,28.13a0.71,0.71,0,0,0-.16.44v8.9H21.15a4.45,4.45,0,0,0,.15-1.09A4.5,4.5,0,0,0,16.8,31.87Zm17.67-6.52C34,26.74,33.1,26.61,33,26.6H32.84l-9.56.07v-6l11.56,0.07ZM21.82,26.67l-12.61.09a0.86,0.86,0,0,1-.52-0.11,0.21,0.21,0,0,1,0-.13l1-5.92,12.15,0v6Zm1.29,1.45L32.77,28a2.87,2.87,0,0,0,3.11-2.31,0.77,0.77,0,0,0,0-.15l0.4-4.83h0.11L36.28,37.46h-13v-8.9A0.72,0.72,0,0,0,23.12,28.12Zm27.62-1.68a1.2,1.2,0,0,1-.85,0l-9.22-.87A0.75,0.75,0,0,1,40,24.91l-0.41-4.14,2.32,0a9.57,9.57,0,0,1,3.83.89l5.1,4.34A0.6,0.6,0,0,1,50.74,26.44Zm3.57,3.42v1h-1V29.65h0.93C54.3,29.75,54.31,29.82,54.31,29.86Z"/><path id="_Path_" data-name="&lt;Path&gt;" class="cls-1" d="M34,31.12a0.73,0.73,0,0,0,.73-0.73V29.17a0.73,0.73,0,1,0-1.46,0v1.22A0.73,0.73,0,0,0,34,31.12Z"/><path id="_Path_2" data-name="&lt;Path&gt;" class="cls-1" d="M40.55,27.88H39.33a0.73,0.73,0,1,0,0,1.46h1.22A0.73,0.73,0,1,0,40.55,27.88Z"/></g></svg>
